<svg width="0" height="0" fill="none" style="visibility: hidden; position: absolute;" aria-hidden="true">
    <symbol id="clock-history" xmlns="http://www.w3.org/2000/svg" width="16" height="16" fill="currentColor" class="bi bi-clock-history" viewBox="0 0 16 16">
        <path d="M8.515 1.019A7 7 0 0 0 8 1V0a8 8 0 0 1 .589.022zm2.004.45a7 7 0 0 0-.985-.299l.219-.976q.576.129 1.126.342zm1.37.71a7 7 0 0 0-.439-.27l.493-.87a8 8 0 0 1 .979.654l-.615.789a7 7 0 0 0-.418-.302zm1.834 1.79a7 7 0 0 0-.653-.796l.724-.69q.406.429.747.91zm.744 1.352a7 7 0 0 0-.214-.468l.893-.45a8 8 0 0 1 .45 1.088l-.95.313a7 7 0 0 0-.179-.483m.53 2.507a7 7 0 0 0-.1-1.025l.985-.17q.1.58.116 1.17zm-.131 1.538q.05-.254.081-.51l.993.123a8 8 0 0 1-.23 1.155l-.964-.267q.069-.247.12-.501m-.952 2.379q.276-.436.486-.908l.914.405q-.24.54-.555 1.038zm-.964 1.205q.183-.183.35-.378l.758.653a8 8 0 0 1-.401.432z"/>
        <path d="M8 1a7 7 0 1 0 4.95 11.95l.707.707A8.001 8.001 0 1 1 8 0z"/>
        <path d="M7.5 3a.5.5 0 0 1 .5.5v5.21l3.248 1.856a.5.5 0 0 1-.496.868l-3.5-2A.5.5 0 0 1 7 9V3.5a.5.5 0 0 1 .5-.5"/>
    </symbol>
    <symbol id="collapse-left" xmlns="http://www.w3.org/2000/svg" width="16" height="16" fill="currentColor" viewBox="0 0 16 16">
        <path fill-rule="evenodd" clip-rule="evenodd" d="M0 12.25a.75.75 0 0 0 1.5 0v-8.5a.75.75 0 0 0-1.5 0v8.5zm7.841-8.03a.75.75 0 0 1 0 1.06l-1.97 1.97h9.379a.75.75 0 0 1 0 1.5H5.871l1.97 1.97a.75.75 0 1 1-1.06 1.06L3.53 8.53 3 8l.53-.53 3.25-3.25a.75.75 0 0 1 1.061 0z"/>
    </symbol>
    <symbol id="collapse-right" xmlns="http://www.w3.org/2000/svg" viewBox="0 0 16 16">
        <path fill-rule="evenodd" clip-rule="evenodd" d="M14.5 3.75a.75.75 0 0 1 1.5 0v8.5a.75.75 0 0 1-1.5 0v-8.5zm-6.341.47a.75.75 0 0 0 0 1.06l1.97 1.97H.75a.75.75 0 0 0 0 1.5h9.379l-1.97 1.97a.75.75 0 1 0 1.06 1.06l3.25-3.25L13 8l-.53-.53-3.25-3.25a.75.75 0 0 0-1.061 0z"/>
    </symbol>
    <symbol id="database" xmlns="http://www.w3.org/2000/svg" width="16" height="16" fill="currentColor" class="bi bi-database" viewBox="0 0 16 16">
        <path d="M4.318 2.687C5.234 2.271 6.536 2 8 2s2.766.27 3.682.687C12.644 3.125 13 3.627 13 4c0 .374-.356.875-1.318 1.313C10.766 5.729 9.464 6 8 6s-2.766-.27-3.682-.687C3.356 4.875 3 4.373 3 4c0-.374.356-.875 1.318-1.313M13 5.698V7c0 .374-.356.875-1.318 1.313C10.766 8.729 9.464 9 8 9s-2.766-.27-3.682-.687C3.356 7.875 3 7.373 3 7V5.698c.271.202.58.378.904.525C4.978 6.711 6.427 7 8 7s3.022-.289 4.096-.777A5 5 0 0 0 13 5.698M14 4c0-1.007-.875-1.755-1.904-2.223C11.022 1.289 9.573 1 8 1s-3.022.289-4.096.777C2.875 2.245 2 2.993 2 4v9c0 1.007.875 1.755 1.904 2.223C4.978 15.71 6.427 16 8 16s3.022-.289 4.096-.777C13.125 14.755 14 14.007 14 13zm-1 4.698V10c0 .374-.356.875-1.318 1.313C10.766 11.729 9.464 12 8 12s-2.766-.27-3.682-.687C3.356 10.875 3 10.373 3 10V8.698c.271.202.58.378.904.525C4.978 9.71 6.427 10 8 10s3.022-.289 4.096-.777A5 5 0 0 0 13 8.698m0 3V13c0 .374-.356.875-1.318 1.313C10.766 14.729 9.464 15 8 15s-2.766-.27-3.682-.687C3.356 13.875 3 13.373 3 13v-1.302c.271.202.58.378.904.525C4.978 12.71 6.427 13 8 13s3.022-.289 4.096-.777c.324-.147.633-.323.904-.525"/>
    </symbol>
    <symbol id="gear" xmlns="http://www.w3.org/2000/svg" width="16" height="16" fill="currentColor" class="bi bi-gear" viewBox="0 0 16 16">
        <path d="M8 4.754a3.246 3.246 0 1 0 0 6.492 3.246 3.246 0 0 0 0-6.492M5.754 8a2.246 2.246 0 1 1 4.492 0 2.246 2.246 0 0 1-4.492 0"/>
        <path d="M9.796 1.343c-.527-1.79-3.065-1.79-3.592 0l-.094.319a.873.873 0 0 1-1.255.52l-.292-.16c-1.64-.892-3.433.902-2.54 2.541l.159.292a.873.873 0 0 1-.52 1.255l-.319.094c-1.79.527-1.79 3.065 0 3.592l.319.094a.873.873 0 0 1 .52 1.255l-.16.292c-.892 1.64.901 3.434 2.541 2.54l.292-.159a.873.873 0 0 1 1.255.52l.094.319c.527 1.79 3.065 1.79 3.592 0l.094-.319a.873.873 0 0 1 1.255-.52l.292.16c1.64.893 3.434-.902 2.54-2.541l-.159-.292a.873.873 0 0 1 .52-1.255l.319-.094c1.79-.527 1.79-3.065 0-3.592l-.319-.094a.873.873 0 0 1-.52-1.255l.16-.292c.893-1.64-.902-3.433-2.541-2.54l-.292.159a.873.873 0 0 1-1.255-.52zm-2.633.283c.246-.835 1.428-.835 1.674 0l.094.319a1.873 1.873 0 0 0 2.693 1.115l.291-.16c.764-.415 1.6.42 1.184 1.185l-.159.292a1.873 1.873 0 0 0 1.116 2.692l.318.094c.835.246.835 1.428 0 1.674l-.319.094a1.873 1.873 0 0 0-1.115 2.693l.16.291c.415.764-.42 1.6-1.185 1.184l-.291-.159a1.873 1.873 0 0 0-2.693 1.116l-.094.318c-.246.835-1.428.835-1.674 0l-.094-.319a1.873 1.873 0 0 0-2.692-1.115l-.292.16c-.764.415-1.6-.42-1.184-1.185l.159-.291A1.873 1.873 0 0 0 1.945 8.93l-.319-.094c-.835-.246-.835-1.428 0-1.674l.319-.094A1.873 1.873 0 0 0 3.06 4.377l-.16-.292c-.415-.764.42-1.6 1.185-1.184l.292.159a1.873 1.873 0 0 0 2.692-1.115z"/>
    </symbol>
    <symbol id="globe-americas" xmlns="http://www.w3.org/2000/svg" width="16" height="16" fill="currentColor" class="bi bi-globe-americas" viewBox="0 0 16 16">
        <path d="M8 0a8 8 0 1 0 0 16A8 8 0 0 0 8 0M2.04 4.326c.325 1.329 2.532 2.54 3.717 3.19.48.263.793.434.743.484q-.121.12-.242.234c-.416.396-.787.749-.758 1.266.035.634.618.824 1.214 1.017.577.188 1.168.38 1.286.983.082.417-.075.988-.22 1.52-.215.782-.406 1.48.22 1.48 1.5-.5 3.798-3.186 4-5 .138-1.243-2-2-3.5-2.5-.478-.16-.755.081-.99.284-.172.15-.322.279-.51.216-.445-.148-2.5-2-1.5-2.5.78-.39.952-.171 1.227.182.078.099.163.208.273.318.609.304.662-.132.723-.633.039-.322.081-.671.277-.867.434-.434 1.265-.791 2.028-1.12.712-.306 1.365-.587 1.579-.88A7 7 0 1 1 2.04 4.327Z"/>
    </symbol>
    <symbol id="house" xmlns="http://www.w3.org/2000/svg" width="16" height="16" fill="currentColor" class="bi bi-house" viewBox="0 0 16 16">
        <path d="M8.707 1.5a1 1 0 0 0-1.414 0L.646 8.146a.5.5 0 0 0 .708.708L2 8.207V13.5A1.5 1.5 0 0 0 3.5 15h9a1.5 1.5 0 0 0 1.5-1.5V8.207l.646.647a.5.5 0 0 0 .708-.708L13 5.793V2.5a.5.5 0 0 0-.5-.5h-1a.5.5 0 0 0-.5.5v1.293zM13 7.207V13.5a.5.5 0 0 1-.5.5h-9a.5.5 0 0 1-.5-.5V7.207l5-5z"/>
    </symbol>
    <symbol id="indent" xmlns="http://www.w3.org/2000/svg" width="16" height="16" fill="currentColor" class="bi bi-indent" viewBox="0 0 16 16">
        <path fill-rule="evenodd" d="M3 8a.5.5 0 0 1 .5-.5h6.793L8.146 5.354a.5.5 0 1 1 .708-.708l3 3a.5.5 0 0 1 0 .708l-3 3a.5.5 0 0 1-.708-.708L10.293 8.5H3.5A.5.5 0 0 1 3 8"/>
        <path fill-rule="evenodd" d="M12.5 4a.5.5 0 0 1 .5.5v7a.5.5 0 0 1-1 0v-7a.5.5 0 0 1 .5-.5"/>
    </symbol>
    <symbol id="layout-text-window" xmlns="http://www.w3.org/2000/svg" width="16" height="16" fill="currentColor" class="bi bi-layout-text-window" viewBox="0 0 16 16">
        <path d="M3 6.5a.5.5 0 0 1 .5-.5h5a.5.5 0 0 1 0 1h-5a.5.5 0 0 1-.5-.5m0 3a.5.5 0 0 1 .5-.5h5a.5.5 0 0 1 0 1h-5a.5.5 0 0 1-.5-.5m.5 2.5a.5.5 0 0 0 0 1h5a.5.5 0 0 0 0-1z"/>
        <path d="M2 0a2 2 0 0 0-2 2v12a2 2 0 0 0 2 2h12a2 2 0 0 0 2-2V2a2 2 0 0 0-2-2zm12 1a1 1 0 0 1 1 1v1H1V2a1 1 0 0 1 1-1zm1 3v10a1 1 0 0 1-1 1h-2V4zm-4 0v11H2a1 1 0 0 1-1-1V4z"/>
    </symbol>
    <symbol id="lightning" xmlns="http://www.w3.org/2000/svg" width="16" height="16" fill="currentColor" class="bi bi-lightning" viewBox="0 0 16 16">
        <path d="M5.52.359A.5.5 0 0 1 6 0h4a.5.5 0 0 1 .474.658L8.694 6H12.5a.5.5 0 0 1 .395.807l-7 9a.5.5 0 0 1-.873-.454L6.823 9.5H3.5a.5.5 0 0 1-.48-.641zM6.374 1 4.168 8.5H7.5a.5.5 0 0 1 .478.647L6.78 13.04 11.478 7H8a.5.5 0 0 1-.474-.658L9.306 1z"/>
    </symbol>
    <symbol id="list-columns-reverse" xmlns="http://www.w3.org/2000/svg" width="16" height="16" fill="currentColor" class="bi bi-list-columns-reverse" viewBox="0 0 16 16">
        <path fill-rule="evenodd" d="M0 .5A.5.5 0 0 1 .5 0h2a.5.5 0 0 1 0 1h-2A.5.5 0 0 1 0 .5m4 0a.5.5 0 0 1 .5-.5h10a.5.5 0 0 1 0 1h-10A.5.5 0 0 1 4 .5m-4 2A.5.5 0 0 1 .5 2h2a.5.5 0 0 1 0 1h-2a.5.5 0 0 1-.5-.5m4 0a.5.5 0 0 1 .5-.5h9a.5.5 0 0 1 0 1h-9a.5.5 0 0 1-.5-.5m-4 2A.5.5 0 0 1 .5 4h2a.5.5 0 0 1 0 1h-2a.5.5 0 0 1-.5-.5m4 0a.5.5 0 0 1 .5-.5h11a.5.5 0 0 1 0 1h-11a.5.5 0 0 1-.5-.5m-4 2A.5.5 0 0 1 .5 6h2a.5.5 0 0 1 0 1h-2a.5.5 0 0 1-.5-.5m4 0a.5.5 0 0 1 .5-.5h8a.5.5 0 0 1 0 1h-8a.5.5 0 0 1-.5-.5m-4 2A.5.5 0 0 1 .5 8h2a.5.5 0 0 1 0 1h-2a.5.5 0 0 1-.5-.5m4 0a.5.5 0 0 1 .5-.5h8a.5.5 0 0 1 0 1h-8a.5.5 0 0 1-.5-.5m-4 2a.5.5 0 0 1 .5-.5h2a.5.5 0 0 1 0 1h-2a.5.5 0 0 1-.5-.5m4 0a.5.5 0 0 1 .5-.5h10a.5.5 0 0 1 0 1h-10a.5.5 0 0 1-.5-.5m-4 2a.5.5 0 0 1 .5-.5h2a.5.5 0 0 1 0 1h-2a.5.5 0 0 1-.5-.5m4 0a.5.5 0 0 1 .5-.5h6a.5.5 0 0 1 0 1h-6a.5.5 0 0 1-.5-.5m-4 2a.5.5 0 0 1 .5-.5h2a.5.5 0 0 1 0 1h-2a.5.5 0 0 1-.5-.5m4 0a.5.5 0 0 1 .5-.5h11a.5.5 0 0 1 0 1h-11a.5.5 0 0 1-.5-.5"/>
    </symbol>
    <symbol id="pencil-square" xmlns="http://www.w3.org/2000/svg" width="16" height="16" fill="currentColor" class="bi bi-pencil-square" viewBox="0 0 16 16">
        <path d="M15.502 1.94a.5.5 0 0 1 0 .706L14.459 3.69l-2-2L13.502.646a.5.5 0 0 1 .707 0l1.293 1.293zm-1.75 2.456-2-2L4.939 9.21a.5.5 0 0 0-.121.196l-.805 2.414a.25.25 0 0 0 .316.316l2.414-.805a.5.5 0 0 0 .196-.12l6.813-6.814z"/>
        <path fill-rule="evenodd" d="M1 13.5A1.5 1.5 0 0 0 2.5 15h11a1.5 1.5 0 0 0 1.5-1.5v-6a.5.5 0 0 0-1 0v6a.5.5 0 0 1-.5.5h-11a.5.5 0 0 1-.5-.5v-11a.5.5 0 0 1 .5-.5H9a.5.5 0 0 0 0-1H2.5A1.5 1.5 0 0 0 1 2.5z"/>
    </symbol>
    <symbol id="rocket-takeoff" xmlns="http://www.w3.org/2000/svg" width="16" height="16" fill="currentColor" class="bi bi-rocket-takeoff" viewBox="0 0 16 16">
        <path d="M9.752 6.193c.599.6 1.73.437 2.528-.362s.96-1.932.362-2.531c-.599-.6-1.73-.438-2.528.361-.798.8-.96 1.933-.362 2.532"/>
        <path d="M15.811 3.312c-.363 1.534-1.334 3.626-3.64 6.218l-.24 2.408a2.56 2.56 0 0 1-.732 1.526L8.817 15.85a.51.51 0 0 1-.867-.434l.27-1.899c.04-.28-.013-.593-.131-.956a9 9 0 0 0-.249-.657l-.082-.202c-.815-.197-1.578-.662-2.191-1.277-.614-.615-1.079-1.379-1.275-2.195l-.203-.083a10 10 0 0 0-.655-.248c-.363-.119-.675-.172-.955-.132l-1.896.27A.51.51 0 0 1 .15 7.17l2.382-2.386c.41-.41.947-.67 1.524-.734h.006l2.4-.238C9.005 1.55 11.087.582 12.623.208c.89-.217 1.59-.232 2.08-.188.244.023.435.06.57.093q.1.026.16.045c.184.06.279.13.351.295l.029.073a3.5 3.5 0 0 1 .157.721c.055.485.051 1.178-.159 2.065m-4.828 7.475.04-.04-.107 1.081a1.54 1.54 0 0 1-.44.913l-1.298 1.3.054-.38c.072-.506-.034-.993-.172-1.418a9 9 0 0 0-.164-.45c.738-.065 1.462-.38 2.087-1.006M5.205 5c-.625.626-.94 1.351-1.004 2.09a9 9 0 0 0-.45-.164c-.424-.138-.91-.244-1.416-.172l-.38.054 1.3-1.3c.245-.246.566-.401.91-.44l1.08-.107zm9.406-3.961c-.38-.034-.967-.027-1.746.163-1.558.38-3.917 1.496-6.937 4.521-.62.62-.799 1.34-.687 2.051.107.676.483 1.362 1.048 1.928.564.565 1.25.941 1.924 1.049.71.112 1.429-.067 2.048-.688 3.079-3.083 4.192-5.444 4.556-6.987.183-.771.18-1.345.138-1.713a3 3 0 0 0-.045-.283 3 3 0 0 0-.3-.041Z"/>
        <path d="M7.009 12.139a7.6 7.6 0 0 1-1.804-1.352A7.6 7.6 0 0 1 3.794 8.86c-1.102.992-1.965 5.054-1.839 5.18.125.126 3.936-.896 5.054-1.902Z"/>
    </symbol>
    <symbol id="stack" xmlns="http://www.w3.org/2000/svg" width="16" height="16" fill="currentColor" class="bi bi-stack" viewBox="0 0 16 16">
        <path d="m14.12 10.163 1.715.858c.22.11.22.424 0 .534L8.267 15.34a.6.6 0 0 1-.534 0L.165 11.555a.299.299 0 0 1 0-.534l1.716-.858 5.317 2.659c.505.252 1.1.252 1.604 0l5.317-2.66zM7.733.063a.6.6 0 0 1 .534 0l7.568 3.784a.3.3 0 0 1 0 .535L8.267 8.165a.6.6 0 0 1-.534 0L.165 4.382a.299.299 0 0 1 0-.535z"/>
        <path d="m14.12 6.576 1.715.858c.22.11.22.424 0 .534l-7.568 3.784a.6.6 0 0 1-.534 0L.165 7.968a.299.299 0 0 1 0-.534l1.716-.858 5.317 2.659c.505.252 1.1.252 1.604 0z"/>
    </symbol>
    <symbol id="terminal" xmlns="http://www.w3.org/2000/svg" width="16" height="16" fill="currentColor" class="bi bi-terminal" viewBox="0 0 16 16">
        <path d="M6 9a.5.5 0 0 1 .5-.5h3a.5.5 0 0 1 0 1h-3A.5.5 0 0 1 6 9M3.854 4.146a.5.5 0 1 0-.708.708L4.793 6.5 3.146 8.146a.5.5 0 1 0 .708.708l2-2a.5.5 0 0 0 0-.708z"/>
        <path d="M2 1a2 2 0 0 0-2 2v10a2 2 0 0 0 2 2h12a2 2 0 0 0 2-2V3a2 2 0 0 0-2-2zm12 1a1 1 0 0 1 1 1v10a1 1 0 0 1-1 1H2a1 1 0 0 1-1-1V3a1 1 0 0 1 1-1z"/>
    </symbol>
    <symbol id="unindent" xmlns="http://www.w3.org/2000/svg" width="16" height="16" fill="currentColor" class="bi bi-unindent" viewBox="0 0 16 16">
        <path fill-rule="evenodd" d="M13 8a.5.5 0 0 0-.5-.5H5.707l2.147-2.146a.5.5 0 1 0-.708-.708l-3 3a.5.5 0 0 0 0 .708l3 3a.5.5 0 0 0 .708-.708L5.707 8.5H12.5A.5.5 0 0 0 13 8"/>
        <path fill-rule="evenodd" d="M3.5 4a.5.5 0 0 0-.5.5v7a.5.5 0 0 0 1 0v-7a.5.5 0 0 0-.5-.5"/>
    </symbol>
</svg>